<?xml version="1.0" standalone="no"?>
<!DOCTYPE svg PUBLIC "-//W3C//DTD SVG 20010904//EN"
 "http://www.w3.org/TR/2001/REC-SVG-20010904/DTD/svg10.dtd">
<svg version="1.0" xmlns="http://www.w3.org/2000/svg"
 width="225.000000pt" height="225.000000pt" viewBox="0 0 225.000000 225.000000"
 preserveAspectRatio="xMidYMid meet">
<metadata>
Created by potrace 1.11, written by Peter Selinger 2001-2013
</metadata>
<g transform="translate(0.000000,225.000000) scale(0.100000,-0.100000)"
fill="#000000" stroke="none">
<path d="M982 2239 c-601 -78 -1038 -629 -973 -1228 29 -272 146 -509 342
-696 157 -150 322 -239 532 -287 130 -30 354 -30 484 0 210 48 375 137 532
287 410 390 465 1017 130 1476 -64 87 -196 212 -288 273 -216 144 -500 209
-759 175z m88 -419 c0 -20 -67 -84 -135 -128 -250 -164 -413 -478 -391 -757
21 -271 155 -436 380 -468 174 -25 377 67 520 233 206 240 269 663 130 873
-54 82 -170 135 -270 122 -73 -9 -131 -62 -208 -191 -96 -160 -155 -222 -228
-239 -32 -8 -35 4 -18 66 13 45 99 188 152 251 47 57 142 130 218 168 230 116
428 86 540 -83 57 -85 74 -173 67 -346 -4 -106 -11 -156 -32 -226 -72 -245
-219 -433 -465 -595 -315 -206 -648 -211 -833 -10 -103 110 -145 250 -134 445
9 146 28 218 93 350 111 226 322 432 525 515 82 33 89 34 89 20z"/>
</g>
</svg>
